<?xml version="1.0" encoding="UTF-8" standalone="no"?>
<!DOCTYPE svg PUBLIC "-//W3C//DTD SVG 1.1//EN"
 "http://www.w3.org/Graphics/SVG/1.1/DTD/svg11.dtd">
<!-- Generated by graphviz version 14.0.2 (20251019.1705)
 -->
<!-- Pages: 1 -->
<svg width="1577pt" height="755pt"
 viewBox="0.00 0.00 1577.00 755.00" xmlns="http://www.w3.org/2000/svg" xmlns:xlink="http://www.w3.org/1999/xlink">
<g id="graph0" class="graph" transform="scale(1 1) rotate(0) translate(4 750.5)">
<polygon fill="white" stroke="none" points="-4,4 -4,-750.5 1572.5,-750.5 1572.5,4 -4,4"/>
<g id="clust2" class="cluster">
<title>cluster_associated</title>
</g>
<!-- Building -->
<g id="node1" class="node">
<title>Building</title>
<g id="a_node1"><a xlink:href="../classes/Building__Building.md" xlink:title="&lt;TABLE&gt;">
<polygon fill="lightgray" stroke="none" points="212.12,-614.25 212.12,-630.5 529.88,-630.5 529.88,-614.25 212.12,-614.25"/>
<text xml:space="preserve" text-anchor="start" x="348.88" y="-618.1" font-family="Arial" font-size="12.00">Building</text>
<text xml:space="preserve" text-anchor="start" x="213.12" y="-601.85" font-family="Arial" font-size="12.00">builtAccordingToConstructionCode: xsd::string «only»</text>
<text xml:space="preserve" text-anchor="start" x="213.12" y="-585.6" font-family="Arial" font-size="12.00">numAboveGroundFloors: xsd::nonNegativeInteger «max 1»</text>
<text xml:space="preserve" text-anchor="start" x="213.12" y="-569.35" font-family="Arial" font-size="12.00">numBuildingUnits: xsd::nonNegativeInteger «max 1»</text>
<text xml:space="preserve" text-anchor="start" x="213.12" y="-553.1" font-family="Arial" font-size="12.00">numFloors: xsd::nonNegativeInteger «exactly 1»</text>
<text xml:space="preserve" text-anchor="start" x="213.12" y="-536.85" font-family="Arial" font-size="12.00">propertyRegistrationID: xsd::string «max 1»</text>
<polygon fill="none" stroke="black" points="211.12,-532 211.12,-631.5 530.88,-631.5 530.88,-532 211.12,-532"/>
</a>
</g>
</g>
<!-- BuildingOntologyThing -->
<g id="node2" class="node">
<title>BuildingOntologyThing</title>
<g id="a_node2"><a xlink:href="../_counters/Building__BuildingOntologyThing.md" xlink:title="&lt;TABLE&gt;">
<polygon fill="lightgray" stroke="none" points="226.5,-704.38 226.5,-720.62 351.5,-720.62 351.5,-704.38 226.5,-704.38"/>
<text xml:space="preserve" text-anchor="start" x="227.5" y="-708.23" font-family="Arial" font-size="12.00">BuildingOntologyThing</text>
<polygon fill="none" stroke="black" points="225.5,-703.38 225.5,-721.62 352.5,-721.62 352.5,-703.38 225.5,-703.38"/>
</a>
</g>
</g>
<!-- Building&#45;&gt;BuildingOntologyThing -->
<g id="edge1" class="edge">
<title>Building&#45;&gt;BuildingOntologyThing</title>
<path fill="none" stroke="black" d="M340.12,-631.23C328.46,-649.54 315.64,-669.67 305.75,-685.2"/>
<polygon fill="none" stroke="black" points="302.95,-683.08 300.53,-693.39 308.86,-686.84 302.95,-683.08"/>
</g>
<!-- infrastructure__InfrastructureElement -->
<g id="node3" class="node">
<title>infrastructure__InfrastructureElement</title>
<polygon fill="lightgray" stroke="none" points="371.88,-704.38 371.88,-720.62 562.12,-720.62 562.12,-704.38 371.88,-704.38"/>
<text xml:space="preserve" text-anchor="start" x="372.88" y="-708.23" font-family="Arial" font-size="12.00">infrastructure::InfrastructureElement</text>
<polygon fill="none" stroke="black" points="370.88,-703.38 370.88,-721.62 563.12,-721.62 563.12,-703.38 370.88,-703.38"/>
</g>
<!-- Building&#45;&gt;infrastructure__InfrastructureElement -->
<g id="edge2" class="edge">
<title>Building&#45;&gt;infrastructure__InfrastructureElement</title>
<path fill="none" stroke="black" d="M407.15,-631.23C420.93,-649.71 436.1,-670.06 447.72,-685.64"/>
<polygon fill="none" stroke="black" points="444.76,-687.53 453.54,-693.45 450.37,-683.35 444.76,-687.53"/>
</g>
<!-- Invis -->
<!-- Building&#45;&gt;Invis -->
<!-- BuildingUse -->
<g id="node6" class="node">
<title>BuildingUse</title>
<g id="a_node6"><a xlink:href="../_counters/Building__BuildingUse.md" xlink:title="&lt;TABLE&gt;">
<polygon fill="lightgray" stroke="none" points="17,-442.88 17,-459.12 85,-459.12 85,-442.88 17,-442.88"/>
<text xml:space="preserve" text-anchor="start" x="18" y="-446.73" font-family="Arial" font-size="12.00">BuildingUse</text>
<polygon fill="none" stroke="black" points="16,-441.88 16,-460.12 86,-460.12 86,-441.88 16,-441.88"/>
</a>
</g>
</g>
<!-- Building&#45;&gt;BuildingUse -->
<g id="edge16" class="edge">
<title>Building&#45;&gt;BuildingUse</title>
<path fill="none" stroke="black" d="M211.4,-542.81C194.74,-539.07 178.04,-535.4 162,-532 120.17,-523.14 98.8,-543.13 67.5,-514 58.27,-505.41 53.97,-492.28 52.06,-480.32"/>
<polygon fill="black" stroke="black" points="55.54,-480.03 51,-470.46 48.58,-480.77 55.54,-480.03"/>
<text xml:space="preserve" text-anchor="middle" x="87.75" y="-503.55" font-family="Arial" font-size="11.00"> use </text>
<text xml:space="preserve" text-anchor="middle" x="87.75" y="-490.05" font-family="Arial" font-size="11.00"> «only» &#160;</text>
</g>
<!-- cityUnits__Area -->
<g id="node7" class="node">
<title>cityUnits__Area</title>
<polygon fill="lightgray" stroke="none" points="68.38,-343.88 68.38,-360.12 147.62,-360.12 147.62,-343.88 68.38,-343.88"/>
<text xml:space="preserve" text-anchor="start" x="69.38" y="-347.73" font-family="Arial" font-size="12.00">cityUnits::Area</text>
<polygon fill="none" stroke="black" points="67.38,-342.88 67.38,-361.12 148.62,-361.12 148.62,-342.88 67.38,-342.88"/>
</g>
<!-- Building&#45;&gt;cityUnits__Area -->
<g id="edge12" class="edge">
<title>Building&#45;&gt;cityUnits__Area</title>
<path fill="none" stroke="black" d="M339.91,-532.03C318.44,-501.02 287.75,-461.49 254,-433 225.35,-408.82 188.26,-388.6 158.62,-374.54"/>
<polygon fill="black" stroke="black" points="160.4,-371.51 149.85,-370.47 157.45,-377.86 160.4,-371.51"/>
<text xml:space="preserve" text-anchor="middle" x="343.56" y="-454.05" font-family="Arial" font-size="11.00"> hasBuildingFloorArea </text>
<text xml:space="preserve" text-anchor="middle" x="343.56" y="-440.55" font-family="Arial" font-size="11.00"> «only» &#160;</text>
</g>
<!-- Building&#45;&gt;cityUnits__Area -->
<g id="edge13" class="edge">
<title>Building&#45;&gt;cityUnits__Area</title>
<path fill="none" stroke="black" d="M211.38,-537.77C177.28,-521.49 144.85,-499.25 122.5,-469 103.85,-443.75 102.44,-406.66 104.25,-381.26"/>
<polygon fill="black" stroke="black" points="107.73,-381.62 105.19,-371.34 100.76,-380.96 107.73,-381.62"/>
<text xml:space="preserve" text-anchor="middle" x="186.25" y="-454.05" font-family="Arial" font-size="11.00"> hasBuildingFootprintArea </text>
<text xml:space="preserve" text-anchor="middle" x="186.25" y="-440.55" font-family="Arial" font-size="11.00"> «only» &#160;</text>
</g>
<!-- cityUnits__Length -->
<g id="node8" class="node">
<title>cityUnits__Length</title>
<polygon fill="lightgray" stroke="none" points="58.75,-244.88 58.75,-261.12 149.25,-261.12 149.25,-244.88 58.75,-244.88"/>
<text xml:space="preserve" text-anchor="start" x="59.75" y="-248.72" font-family="Arial" font-size="12.00">cityUnits::Length</text>
<polygon fill="none" stroke="black" points="57.75,-243.88 57.75,-262.12 150.25,-262.12 150.25,-243.88 57.75,-243.88"/>
</g>
<!-- Building&#45;&gt;cityUnits__Length -->
<g id="edge14" class="edge">
<title>Building&#45;&gt;cityUnits__Length</title>
<path fill="none" stroke="black" d="M398.82,-532.12C412.41,-501.35 421.98,-462.04 402,-433 389.32,-414.57 374.96,-425.09 355,-415 272.4,-373.24 182.75,-311.29 136.19,-277.71"/>
<polygon fill="black" stroke="black" points="138.3,-274.92 128.15,-271.88 134.19,-280.59 138.3,-274.92"/>
<text xml:space="preserve" text-anchor="middle" x="401.5" y="-404.55" font-family="Arial" font-size="11.00"> hasBuildingHeight </text>
<text xml:space="preserve" text-anchor="middle" x="401.5" y="-391.05" font-family="Arial" font-size="11.00"> «only» &#160;</text>
</g>
<!-- ConstructionStatus -->
<g id="node9" class="node">
<title>ConstructionStatus</title>
<g id="a_node9"><a xlink:href="../_counters/Building__ConstructionStatus.md" xlink:title="&lt;TABLE&gt;">
<polygon fill="lightgray" stroke="none" points="45.38,-171.88 45.38,-188.12 148.62,-188.12 148.62,-171.88 45.38,-171.88"/>
<text xml:space="preserve" text-anchor="start" x="46.38" y="-175.72" font-family="Arial" font-size="12.00">ConstructionStatus</text>
<polygon fill="none" stroke="black" points="44.38,-170.88 44.38,-189.12 149.62,-189.12 149.62,-170.88 44.38,-170.88"/>
</a>
</g>
</g>
<!-- Building&#45;&gt;ConstructionStatus -->
<g id="edge21" class="edge">
<title>Building&#45;&gt;ConstructionStatus</title>
<path fill="none" stroke="black" d="M426.03,-532.27C445.2,-510.11 462,-482.11 462,-452 462,-452 462,-452 462,-252 462,-191.33 265.25,-181.48 160.65,-180.52"/>
<polygon fill="black" stroke="black" points="160.83,-177.02 150.81,-180.46 160.79,-184.02 160.83,-177.02"/>
<text xml:space="preserve" text-anchor="middle" x="519.38" y="-355.05" font-family="Arial" font-size="11.00"> hasConstructionStatus </text>
<text xml:space="preserve" text-anchor="middle" x="519.38" y="-341.55" font-family="Arial" font-size="11.00"> «max 1» &#160;</text>
</g>
<!-- Facility -->
<g id="node10" class="node">
<title>Facility</title>
<g id="a_node10"><a xlink:href="../_counters/Building__Facility.md" xlink:title="&lt;TABLE&gt;">
<polygon fill="lightgray" stroke="none" points="76.88,-98.88 76.88,-115.12 117.12,-115.12 117.12,-98.88 76.88,-98.88"/>
<text xml:space="preserve" text-anchor="start" x="77.88" y="-102.72" font-family="Arial" font-size="12.00">Facility</text>
<polygon fill="none" stroke="black" points="75.88,-97.88 75.88,-116.12 118.12,-116.12 118.12,-97.88 75.88,-97.88"/>
</a>
</g>
</g>
<!-- Building&#45;&gt;Facility -->
<g id="edge11" class="edge">
<title>Building&#45;&gt;Facility</title>
<path fill="none" stroke="black" d="M503.04,-532.09C556.12,-508.35 605,-479.13 605,-452 605,-452 605,-452 605,-179 605,-131.59 253.53,-113.93 135.29,-109.33"/>
<polygon fill="black" stroke="black" points="135.59,-105.84 125.47,-108.96 135.33,-112.83 135.59,-105.84"/>
<text xml:space="preserve" text-anchor="middle" x="642.88" y="-305.55" font-family="Arial" font-size="11.00"> buildingFacility </text>
<text xml:space="preserve" text-anchor="middle" x="642.88" y="-292.05" font-family="Arial" font-size="11.00"> «only» &#160;</text>
</g>
<!-- N7c637ee3d5c64e5ba76b52dc2fadc7d6 -->
<g id="node12" class="node">
<title>N7c637ee3d5c64e5ba76b52dc2fadc7d6</title>
<polygon fill="lightyellow" stroke="none" points="709.5,-703.38 709.5,-721.62 800.5,-721.62 800.5,-703.38 709.5,-703.38"/>
<text xml:space="preserve" text-anchor="start" x="711.5" y="-708.23" font-family="Arial" font-size="12.00">«intersectionOf»</text>
<polygon fill="none" stroke="black" points="709.5,-703.38 709.5,-721.62 800.5,-721.62 800.5,-703.38 709.5,-703.38"/>
</g>
<!-- Building&#45;&gt;N7c637ee3d5c64e5ba76b52dc2fadc7d6 -->
<g id="edge20" class="edge">
<title>Building&#45;&gt;N7c637ee3d5c64e5ba76b52dc2fadc7d6</title>
<path fill="none" stroke="black" d="M499.06,-631.44C540.39,-646.56 586.55,-662.83 629.25,-676.5 651.76,-683.71 676.81,-690.85 698.59,-696.79"/>
<polygon fill="black" stroke="black" points="697.62,-700.15 708.18,-699.38 699.44,-693.4 697.62,-700.15"/>
<text xml:space="preserve" text-anchor="middle" x="667.12" y="-666.05" font-family="Arial" font-size="11.00"> floorAreaRatio </text>
<text xml:space="preserve" text-anchor="middle" x="667.12" y="-652.55" font-family="Arial" font-size="11.00"> «max 1» &#160;</text>
</g>
<!-- N7c51c964ca734012b2a7c3d407aea5d0 -->
<g id="node15" class="node">
<title>N7c51c964ca734012b2a7c3d407aea5d0</title>
<polygon fill="lightyellow" stroke="none" points="1115.5,-703.38 1115.5,-721.62 1206.5,-721.62 1206.5,-703.38 1115.5,-703.38"/>
<text xml:space="preserve" text-anchor="start" x="1117.5" y="-708.23" font-family="Arial" font-size="12.00">«intersectionOf»</text>
<polygon fill="none" stroke="black" points="1115.5,-703.38 1115.5,-721.62 1206.5,-721.62 1206.5,-703.38 1115.5,-703.38"/>
</g>
<!-- Building&#45;&gt;N7c51c964ca734012b2a7c3d407aea5d0 -->
<g id="edge25" class="edge">
<title>Building&#45;&gt;N7c51c964ca734012b2a7c3d407aea5d0</title>
<path fill="none" stroke="black" d="M530.45,-629.78C533.65,-630.39 536.84,-630.96 540,-631.5 682.19,-655.64 721.25,-628.97 864,-649.5 916.07,-656.99 927.8,-665.52 979.25,-676.5 1021.08,-685.42 1068.54,-694.53 1104.47,-701.21"/>
<polygon fill="black" stroke="black" points="1103.75,-704.64 1114.22,-703.02 1105.03,-697.76 1103.75,-704.64"/>
<text xml:space="preserve" text-anchor="middle" x="1029.12" y="-666.05" font-family="Arial" font-size="11.00"> windowToWallRatio </text>
<text xml:space="preserve" text-anchor="middle" x="1029.12" y="-652.55" font-family="Arial" font-size="11.00"> «max 1» &#160;</text>
</g>
<!-- BuildingUnit -->
<g id="node5" class="node">
<title>BuildingUnit</title>
<g id="a_node5"><a xlink:href="../_counters/Building__BuildingUnit.md" xlink:title="&lt;TABLE&gt;">
<polygon fill="lightgray" stroke="none" points="17,-573.62 17,-589.88 85,-589.88 85,-573.62 17,-573.62"/>
<text xml:space="preserve" text-anchor="start" x="18" y="-577.48" font-family="Arial" font-size="12.00">BuildingUnit</text>
<polygon fill="none" stroke="black" points="16,-572.62 16,-590.88 86,-590.88 86,-572.62 16,-572.62"/>
</a>
</g>
</g>
<!-- Invis&#45;&gt;BuildingUnit -->
<!-- BuildingUnit&#45;&gt;Building -->
<g id="edge15" class="edge">
<title>BuildingUnit&#45;&gt;Building</title>
<path fill="none" stroke="black" d="M85.85,-581.75C114.42,-581.75 157.14,-581.75 200.87,-581.75"/>
<polygon fill="black" stroke="black" points="210.91,-585.25 200.91,-581.75 210.91,-578.25 210.91,-585.25"/>
<text xml:space="preserve" text-anchor="middle" x="148.56" y="-601.3" font-family="Arial" font-size="11.00"> inverse unitInBuilding </text>
<text xml:space="preserve" text-anchor="middle" x="148.56" y="-587.8" font-family="Arial" font-size="11.00"> «only» &#160;</text>
</g>
<!-- BuildingUnit&#45;&gt;BuildingUse -->
<!-- BuildingUse&#45;&gt;cityUnits__Area -->
<!-- cityUnits__Area&#45;&gt;cityUnits__Length -->
<!-- cityUnits__Length&#45;&gt;ConstructionStatus -->
<!-- ConstructionStatus&#45;&gt;Facility -->
<!-- iso21972__RatioIndicator -->
<g id="node11" class="node">
<title>iso21972__RatioIndicator</title>
<polygon fill="lightgray" stroke="none" points="17.12,-25.88 17.12,-42.12 148.88,-42.12 148.88,-25.88 17.12,-25.88"/>
<text xml:space="preserve" text-anchor="start" x="18.12" y="-29.73" font-family="Arial" font-size="12.00">iso21972::RatioIndicator</text>
<polygon fill="none" stroke="black" points="16.12,-24.88 16.12,-43.12 149.88,-43.12 149.88,-24.88 16.12,-24.88"/>
</g>
<!-- Facility&#45;&gt;iso21972__RatioIndicator -->
<!-- N7c637ee3d5c64e5ba76b52dc2fadc7d6&#45;&gt;iso21972__RatioIndicator -->
<g id="edge19" class="edge">
<title>N7c637ee3d5c64e5ba76b52dc2fadc7d6&#45;&gt;iso21972__RatioIndicator</title>
<path fill="none" stroke="black" stroke-dasharray="1,5" d="M800.39,-711.74C866.95,-711.07 986.36,-705.7 1016,-676.5 1046.01,-646.93 1030,-624.88 1030,-582.75 1030,-582.75 1030,-582.75 1030,-106 1030,-62.55 387.68,-42.51 161.03,-36.79"/>
<polygon fill="black" stroke="black" points="161.19,-33.3 151.1,-36.55 161.01,-40.29 161.19,-33.3"/>
<text xml:space="preserve" text-anchor="middle" x="1049.88" y="-298.8" font-family="Arial" font-size="11.00">member</text>
</g>
<!-- N5dde75247cfc4d6ea2aab9c973e7c2e9 -->
<g id="node13" class="node">
<title>N5dde75247cfc4d6ea2aab9c973e7c2e9</title>
<text xml:space="preserve" text-anchor="middle" x="658" y="-577.48" font-family="Arial" font-size="12.00">N5dde75247cfc4d6ea2aab9c973e7c2e9</text>
</g>
<!-- N7c637ee3d5c64e5ba76b52dc2fadc7d6&#45;&gt;N5dde75247cfc4d6ea2aab9c973e7c2e9 -->
<g id="edge17" class="edge">
<title>N7c637ee3d5c64e5ba76b52dc2fadc7d6&#45;&gt;N5dde75247cfc4d6ea2aab9c973e7c2e9</title>
<path fill="none" stroke="black" stroke-dasharray="1,5" d="M742.32,-694.67C725.83,-672.79 696.88,-634.35 677.57,-608.72"/>
<polygon fill="black" stroke="black" points="680.41,-606.68 671.59,-600.79 674.82,-610.89 680.41,-606.68"/>
<text xml:space="preserve" text-anchor="middle" x="746.21" y="-659.3" font-family="Arial" font-size="11.00">member</text>
</g>
<!-- Nd704a6fca2b04130825ba15555141f8d -->
<g id="node14" class="node">
<title>Nd704a6fca2b04130825ba15555141f8d</title>
<text xml:space="preserve" text-anchor="middle" x="894" y="-577.48" font-family="Arial" font-size="12.00">Nd704a6fca2b04130825ba15555141f8d</text>
</g>
<!-- N7c637ee3d5c64e5ba76b52dc2fadc7d6&#45;&gt;Nd704a6fca2b04130825ba15555141f8d -->
<g id="edge18" class="edge">
<title>N7c637ee3d5c64e5ba76b52dc2fadc7d6&#45;&gt;Nd704a6fca2b04130825ba15555141f8d</title>
<path fill="none" stroke="black" stroke-dasharray="1,5" d="M773.17,-694.67C797.21,-672.4 839.76,-632.99 867.41,-607.38"/>
<polygon fill="black" stroke="black" points="869.76,-609.98 874.71,-600.61 865,-604.84 869.76,-609.98"/>
<text xml:space="preserve" text-anchor="middle" x="840.21" y="-659.3" font-family="Arial" font-size="11.00">member</text>
</g>
<!-- N7c51c964ca734012b2a7c3d407aea5d0&#45;&gt;iso21972__RatioIndicator -->
<g id="edge24" class="edge">
<title>N7c51c964ca734012b2a7c3d407aea5d0&#45;&gt;iso21972__RatioIndicator</title>
<path fill="none" stroke="black" stroke-dasharray="1,5" d="M1145.23,-694.67C1125.14,-671.41 1093,-627.24 1093,-582.75 1093,-582.75 1093,-582.75 1093,-106 1093,-59.33 397.76,-41.23 160.92,-36.42"/>
<polygon fill="black" stroke="black" points="161.24,-32.92 151.17,-36.22 161.1,-39.92 161.24,-32.92"/>
<text xml:space="preserve" text-anchor="middle" x="1112.88" y="-298.8" font-family="Arial" font-size="11.00">member</text>
</g>
<!-- N73766ab6116a48e59e1db9bd67e62ffe -->
<g id="node16" class="node">
<title>N73766ab6116a48e59e1db9bd67e62ffe</title>
<text xml:space="preserve" text-anchor="middle" x="1229" y="-577.48" font-family="Arial" font-size="12.00">N73766ab6116a48e59e1db9bd67e62ffe</text>
</g>
<!-- N7c51c964ca734012b2a7c3d407aea5d0&#45;&gt;N73766ab6116a48e59e1db9bd67e62ffe -->
<g id="edge22" class="edge">
<title>N7c51c964ca734012b2a7c3d407aea5d0&#45;&gt;N73766ab6116a48e59e1db9bd67e62ffe</title>
<path fill="none" stroke="black" stroke-dasharray="1,5" d="M1169.89,-694.67C1181.29,-673.08 1201.21,-635.37 1214.74,-609.74"/>
<polygon fill="black" stroke="black" points="1217.83,-611.4 1219.4,-600.92 1211.64,-608.13 1217.83,-611.4"/>
<text xml:space="preserve" text-anchor="middle" x="1212.84" y="-659.3" font-family="Arial" font-size="11.00">member</text>
</g>
<!-- N9495af7bc56a4850b35faf65639b7150 -->
<g id="node17" class="node">
<title>N9495af7bc56a4850b35faf65639b7150</title>
<text xml:space="preserve" text-anchor="middle" x="1462" y="-577.48" font-family="Arial" font-size="12.00">N9495af7bc56a4850b35faf65639b7150</text>
</g>
<!-- N7c51c964ca734012b2a7c3d407aea5d0&#45;&gt;N9495af7bc56a4850b35faf65639b7150 -->
<g id="edge23" class="edge">
<title>N7c51c964ca734012b2a7c3d407aea5d0&#45;&gt;N9495af7bc56a4850b35faf65639b7150</title>
<path fill="none" stroke="black" stroke-dasharray="1,5" d="M1200.66,-694.54C1255.18,-671.22 1353.23,-629.27 1412.49,-603.93"/>
<polygon fill="black" stroke="black" points="1413.52,-607.29 1421.34,-600.14 1410.77,-600.86 1413.52,-607.29"/>
<text xml:space="preserve" text-anchor="middle" x="1322.35" y="-659.3" font-family="Arial" font-size="11.00">member</text>
</g>
</g>
</svg>
