<?xml version="1.0" encoding="UTF-8" standalone="no"?>
<!DOCTYPE svg PUBLIC "-//W3C//DTD SVG 1.1//EN"
 "http://www.w3.org/Graphics/SVG/1.1/DTD/svg11.dtd">
<!-- Generated by graphviz version 14.0.2 (20251019.1705)
 -->
<!-- Pages: 1 -->
<svg width="962pt" height="615pt"
 viewBox="0.00 0.00 962.00 615.00" xmlns="http://www.w3.org/2000/svg" xmlns:xlink="http://www.w3.org/1999/xlink">
<g id="graph0" class="graph" transform="scale(1 1) rotate(0) translate(4 611.25)">
<polygon fill="white" stroke="none" points="-4,4 -4,-611.25 958.25,-611.25 958.25,4 -4,4"/>
<g id="clust2" class="cluster">
<title>cluster_associated</title>
</g>
<!-- Law -->
<g id="node1" class="node">
<title>Law</title>
<g id="a_node1"><a xlink:href="../classes/Bylaw__Law.md" xlink:title="&lt;TABLE&gt;">
<polygon fill="lightgray" stroke="none" points="292.38,-491 292.38,-507.25 503.62,-507.25 503.62,-491 292.38,-491"/>
<text xml:space="preserve" text-anchor="start" x="386.75" y="-494.85" font-family="Arial" font-size="12.00">Law</text>
<text xml:space="preserve" text-anchor="start" x="293.38" y="-478.6" font-family="Arial" font-size="12.00">abstract: xsd::string «max 1»</text>
<text xml:space="preserve" text-anchor="start" x="293.38" y="-462.35" font-family="Arial" font-size="12.00">dateInEffect: xsd::dateTime «max 1»</text>
<text xml:space="preserve" text-anchor="start" x="293.38" y="-446.1" font-family="Arial" font-size="12.00">datePublished: xsd::dateTime «max 1»</text>
<text xml:space="preserve" text-anchor="start" x="293.38" y="-429.85" font-family="Arial" font-size="12.00">expires: xsd::dateTime «max 1»</text>
<text xml:space="preserve" text-anchor="start" x="293.38" y="-413.6" font-family="Arial" font-size="12.00">genProp::hasName: xsd::string «only»</text>
<text xml:space="preserve" text-anchor="start" x="293.38" y="-397.35" font-family="Arial" font-size="12.00">keywords: xsd::string «only»</text>
<text xml:space="preserve" text-anchor="start" x="293.38" y="-381.1" font-family="Arial" font-size="12.00">legislationDate: xsd::dateTime «max 1»</text>
<text xml:space="preserve" text-anchor="start" x="293.38" y="-364.85" font-family="Arial" font-size="12.00">legislationIdentifier: xsd::string «max 1»</text>
<polygon fill="none" stroke="black" points="291.38,-360 291.38,-508.25 504.62,-508.25 504.62,-360 291.38,-360"/>
</a>
</g>
</g>
<!-- BylawOntologyThing -->
<g id="node2" class="node">
<title>BylawOntologyThing</title>
<g id="a_node2"><a xlink:href="../_counters/Bylaw__BylawOntologyThing.md" xlink:title="&lt;TABLE&gt;">
<polygon fill="lightgray" stroke="none" points="250.12,-581.12 250.12,-597.38 363.88,-597.38 363.88,-581.12 250.12,-581.12"/>
<text xml:space="preserve" text-anchor="start" x="251.12" y="-584.98" font-family="Arial" font-size="12.00">BylawOntologyThing</text>
<polygon fill="none" stroke="black" points="249.12,-580.12 249.12,-598.38 364.88,-598.38 364.88,-580.12 249.12,-580.12"/>
</a>
</g>
</g>
<!-- Law&#45;&gt;BylawOntologyThing -->
<g id="edge1" class="edge">
<title>Law&#45;&gt;BylawOntologyThing</title>
<path fill="none" stroke="black" d="M354.58,-508.19C343.2,-527.34 331.64,-546.79 322.77,-561.72"/>
<polygon fill="none" stroke="black" points="319.96,-559.59 317.86,-569.98 325.98,-563.17 319.96,-559.59"/>
</g>
<!-- Invis -->
<!-- Law&#45;&gt;Invis -->
<!-- city__JurisdictionalArea -->
<g id="node4" class="node">
<title>city__JurisdictionalArea</title>
<polygon fill="lightgray" stroke="none" points="17,-270.88 17,-287.12 139,-287.12 139,-270.88 17,-270.88"/>
<text xml:space="preserve" text-anchor="start" x="18" y="-274.73" font-family="Arial" font-size="12.00">city::JurisdictionalArea</text>
<polygon fill="none" stroke="black" points="16,-269.88 16,-288.12 140,-288.12 140,-269.88 16,-269.88"/>
</g>
<!-- Law&#45;&gt;city__JurisdictionalArea -->
<g id="edge15" class="edge">
<title>Law&#45;&gt;city__JurisdictionalArea</title>
<path fill="none" stroke="black" d="M291.44,-400.3C248.28,-387.3 197.89,-372.51 152,-360 119.97,-351.27 100.27,-367.9 79.5,-342 71.97,-332.61 70.73,-319.61 71.72,-307.93"/>
<polygon fill="black" stroke="black" points="75.14,-308.77 73.09,-298.38 68.21,-307.78 75.14,-308.77"/>
<text xml:space="preserve" text-anchor="middle" x="132.75" y="-331.55" font-family="Arial" font-size="11.00"> legislationJurisdiction </text>
<text xml:space="preserve" text-anchor="middle" x="132.75" y="-318.05" font-family="Arial" font-size="11.00"> «max 1» &#160;</text>
</g>
<!-- Clause -->
<g id="node5" class="node">
<title>Clause</title>
<g id="a_node5"><a xlink:href="../_counters/Bylaw__Clause.md" xlink:title="&lt;TABLE&gt;">
<polygon fill="lightgray" stroke="none" points="92.88,-171.88 92.88,-188.12 133.12,-188.12 133.12,-171.88 92.88,-171.88"/>
<text xml:space="preserve" text-anchor="start" x="93.88" y="-175.72" font-family="Arial" font-size="12.00">Clause</text>
<polygon fill="none" stroke="black" points="91.88,-170.88 91.88,-189.12 134.12,-189.12 134.12,-170.88 91.88,-170.88"/>
</a>
</g>
</g>
<!-- Law&#45;&gt;Clause -->
<g id="edge7" class="edge">
<title>Law&#45;&gt;Clause</title>
<path fill="none" stroke="black" d="M291.41,-375.75C256.65,-353.95 219.46,-327.04 190,-297 163.49,-269.97 140.6,-232.59 126.82,-207.65"/>
<polygon fill="black" stroke="black" points="130.04,-206.25 122.21,-199.12 123.88,-209.58 130.04,-206.25"/>
<text xml:space="preserve" text-anchor="middle" x="218.5" y="-282.05" font-family="Arial" font-size="11.00"> hasClause </text>
<text xml:space="preserve" text-anchor="middle" x="218.5" y="-268.55" font-family="Arial" font-size="11.00"> «only» &#160;</text>
</g>
<!-- Law&#45;&gt;Clause -->
<g id="edge9" class="edge">
<title>Law&#45;&gt;Clause</title>
<path fill="none" stroke="black" d="M337.93,-360.19C304.89,-320.99 266.7,-277.41 247,-261 216.91,-235.94 178.08,-213.67 149.98,-199.04"/>
<polygon fill="black" stroke="black" points="151.61,-195.94 141.12,-194.5 148.42,-202.18 151.61,-195.94"/>
<text xml:space="preserve" text-anchor="middle" x="328.32" y="-282.05" font-family="Arial" font-size="11.00"> hasPenaltyClause </text>
<text xml:space="preserve" text-anchor="middle" x="328.32" y="-268.55" font-family="Arial" font-size="11.00"> «only» &#160;</text>
</g>
<!-- Law&#45;&gt;Clause -->
<g id="edge10" class="edge">
<title>Law&#45;&gt;Clause</title>
<path fill="none" stroke="black" d="M405.7,-360.24C405.35,-326.52 398.84,-288.04 376,-261 319.53,-194.14 209.03,-182.02 150.86,-180.52"/>
<polygon fill="black" stroke="black" points="151.19,-177.02 141.14,-180.37 151.08,-184.02 151.19,-177.02"/>
<text xml:space="preserve" text-anchor="middle" x="441.53" y="-282.05" font-family="Arial" font-size="11.00"> hasRepealClause </text>
<text xml:space="preserve" text-anchor="middle" x="441.53" y="-268.55" font-family="Arial" font-size="11.00"> «only» &#160;</text>
</g>
<!-- Law&#45;&gt;Clause -->
<g id="edge12" class="edge">
<title>Law&#45;&gt;Clause</title>
<path fill="none" stroke="black" d="M474.44,-360.19C498.41,-328.53 513.41,-291.74 491,-261 451.1,-206.26 238.88,-188.1 151.08,-182.87"/>
<polygon fill="black" stroke="black" points="151.48,-179.39 141.3,-182.32 151.08,-186.38 151.48,-179.39"/>
<text xml:space="preserve" text-anchor="middle" x="556.37" y="-282.05" font-family="Arial" font-size="11.00"> hasSeveranceClause </text>
<text xml:space="preserve" text-anchor="middle" x="556.37" y="-268.55" font-family="Arial" font-size="11.00"> «only» &#160;</text>
</g>
<!-- Law&#45;&gt;Clause -->
<g id="edge13" class="edge">
<title>Law&#45;&gt;Clause</title>
<path fill="none" stroke="black" d="M504.34,-397.27C578.92,-366.25 658.2,-317.56 615,-261 558.85,-187.48 258.01,-180.72 150.9,-180.69"/>
<polygon fill="black" stroke="black" points="151.2,-177.19 141.21,-180.71 151.21,-184.19 151.2,-177.19"/>
<text xml:space="preserve" text-anchor="middle" x="678.99" y="-282.05" font-family="Arial" font-size="11.00"> hasTransitionClause </text>
<text xml:space="preserve" text-anchor="middle" x="678.99" y="-268.55" font-family="Arial" font-size="11.00"> «only» &#160;</text>
</g>
<!-- Definition -->
<g id="node6" class="node">
<title>Definition</title>
<g id="a_node6"><a xlink:href="../_counters/Bylaw__Definition.md" xlink:title="&lt;TABLE&gt;">
<polygon fill="lightgray" stroke="none" points="85.5,-98.88 85.5,-115.12 138.5,-115.12 138.5,-98.88 85.5,-98.88"/>
<text xml:space="preserve" text-anchor="start" x="86.5" y="-102.72" font-family="Arial" font-size="12.00">Definition</text>
<polygon fill="none" stroke="black" points="84.5,-97.88 84.5,-116.12 139.5,-116.12 139.5,-97.88 84.5,-97.88"/>
</a>
</g>
</g>
<!-- Law&#45;&gt;Definition -->
<g id="edge8" class="edge">
<title>Law&#45;&gt;Definition</title>
<path fill="none" stroke="black" d="M504.52,-418.89C627.09,-397.98 803.26,-351.26 735,-261 663.01,-165.8 274.85,-122.76 150.41,-111.27"/>
<polygon fill="black" stroke="black" points="151,-107.81 140.72,-110.4 150.36,-114.78 151,-107.81"/>
<text xml:space="preserve" text-anchor="middle" x="749.93" y="-232.55" font-family="Arial" font-size="11.00"> hasDefinition </text>
<text xml:space="preserve" text-anchor="middle" x="749.93" y="-219.05" font-family="Arial" font-size="11.00"> «only» &#160;</text>
</g>
<!-- Schedule -->
<g id="node7" class="node">
<title>Schedule</title>
<g id="a_node7"><a xlink:href="../_counters/Bylaw__Schedule.md" xlink:title="&lt;TABLE&gt;">
<polygon fill="lightgray" stroke="none" points="85.5,-25.88 85.5,-42.12 138.5,-42.12 138.5,-25.88 85.5,-25.88"/>
<text xml:space="preserve" text-anchor="start" x="86.5" y="-29.73" font-family="Arial" font-size="12.00">Schedule</text>
<polygon fill="none" stroke="black" points="84.5,-24.88 84.5,-43.12 139.5,-43.12 139.5,-24.88 84.5,-24.88"/>
</a>
</g>
</g>
<!-- Law&#45;&gt;Schedule -->
<g id="edge11" class="edge">
<title>Law&#45;&gt;Schedule</title>
<path fill="none" stroke="black" d="M504.49,-421.39C648.08,-402.55 886,-359.36 886,-280 886,-280 886,-280 886,-106 886,-68.64 306.66,-42.78 150.43,-36.49"/>
<polygon fill="black" stroke="black" points="150.74,-33 140.61,-36.1 150.46,-39.99 150.74,-33"/>
<text xml:space="preserve" text-anchor="middle" x="920.12" y="-183.05" font-family="Arial" font-size="11.00"> hasSchedule </text>
<text xml:space="preserve" text-anchor="middle" x="920.12" y="-169.55" font-family="Arial" font-size="11.00"> «only» &#160;</text>
</g>
<!-- N3629e8fe921b488dabfc81cf8c47ecc5 -->
<g id="node8" class="node">
<title>N3629e8fe921b488dabfc81cf8c47ecc5</title>
<text xml:space="preserve" text-anchor="middle" x="488" y="-584.98" font-family="Arial" font-size="12.00">N3629e8fe921b488dabfc81cf8c47ecc5</text>
</g>
<!-- Law&#45;&gt;N3629e8fe921b488dabfc81cf8c47ecc5 -->
<g id="edge14" class="edge">
<title>Law&#45;&gt;N3629e8fe921b488dabfc81cf8c47ecc5</title>
<path fill="none" stroke="black" d="M440.94,-508.19C452.2,-527.34 463.63,-546.79 472.41,-561.72"/>
<polygon fill="black" stroke="black" points="469.17,-563.13 477.26,-569.97 475.21,-559.58 469.17,-563.13"/>
<text xml:space="preserve" text-anchor="middle" x="519.88" y="-542.8" font-family="Arial" font-size="11.00"> legislationLegalForce </text>
<text xml:space="preserve" text-anchor="middle" x="519.88" y="-529.3" font-family="Arial" font-size="11.00"> «only» &#160;</text>
</g>
<!-- Invis&#45;&gt;city__JurisdictionalArea -->
<!-- city__JurisdictionalArea&#45;&gt;Clause -->
<!-- Clause&#45;&gt;Definition -->
<!-- Definition&#45;&gt;Schedule -->
</g>
</svg>
