<?xml version="1.0" encoding="UTF-8" standalone="no"?>
<!DOCTYPE svg PUBLIC "-//W3C//DTD SVG 1.1//EN"
 "http://www.w3.org/Graphics/SVG/1.1/DTD/svg11.dtd">
<!-- Generated by graphviz version 14.0.2 (20251019.1705)
 -->
<!-- Pages: 1 -->
<svg width="618pt" height="648pt"
 viewBox="0.00 0.00 618.00 648.00" xmlns="http://www.w3.org/2000/svg" xmlns:xlink="http://www.w3.org/1999/xlink">
<g id="graph0" class="graph" transform="scale(1 1) rotate(0) translate(4 644)">
<polygon fill="white" stroke="none" points="-4,4 -4,-644 614,-644 614,4 -4,4"/>
<g id="clust2" class="cluster">
<title>cluster_associated</title>
</g>
<!-- Bylaw -->
<g id="node1" class="node">
<title>Bylaw</title>
<g id="a_node1"><a xlink:href="../classes/Bylaw__Bylaw.md" xlink:title="&lt;TABLE&gt;">
<polygon fill="lightgray" stroke="none" points="315.5,-514.88 315.5,-531.12 350.5,-531.12 350.5,-514.88 315.5,-514.88"/>
<text xml:space="preserve" text-anchor="start" x="316.5" y="-518.73" font-family="Arial" font-size="12.00">Bylaw</text>
<polygon fill="none" stroke="black" points="314.5,-513.88 314.5,-532.12 351.5,-532.12 351.5,-513.88 314.5,-513.88"/>
</a>
</g>
</g>
<!-- Law -->
<g id="node2" class="node">
<title>Law</title>
<g id="a_node2"><a xlink:href="../_counters/Bylaw__Law.md" xlink:title="&lt;TABLE&gt;">
<polygon fill="lightgray" stroke="none" points="348.75,-613.88 348.75,-630.12 373.25,-630.12 373.25,-613.88 348.75,-613.88"/>
<text xml:space="preserve" text-anchor="start" x="349.75" y="-617.73" font-family="Arial" font-size="12.00">Law</text>
<polygon fill="none" stroke="black" points="347.75,-612.88 347.75,-631.12 374.25,-631.12 374.25,-612.88 347.75,-612.88"/>
</a>
</g>
</g>
<!-- Bylaw&#45;&gt;Law -->
<g id="edge1" class="edge">
<title>Bylaw&#45;&gt;Law</title>
<path fill="none" stroke="black" d="M340.39,-540.89C342.7,-546.58 345.14,-553 347,-559 350.44,-570.07 353.41,-582.49 355.72,-593.29"/>
<polygon fill="none" stroke="black" points="352.23,-593.65 357.66,-602.75 359.08,-592.25 352.23,-593.65"/>
</g>
<!-- Invis -->
<!-- Bylaw&#45;&gt;Invis -->
<!-- i72__City -->
<g id="node8" class="node">
<title>i72__City</title>
<polygon fill="lightgray" stroke="none" points="63.25,-98.88 63.25,-115.12 108.75,-115.12 108.75,-98.88 63.25,-98.88"/>
<text xml:space="preserve" text-anchor="start" x="64.25" y="-102.72" font-family="Arial" font-size="12.00">i72::City</text>
<polygon fill="none" stroke="black" points="62.25,-97.88 62.25,-116.12 109.75,-116.12 109.75,-97.88 62.25,-97.88"/>
</g>
<!-- Bylaw&#45;&gt;i72__City -->
<g id="edge16" class="edge">
<title>Bylaw&#45;&gt;i72__City</title>
<path fill="none" stroke="black" stroke-dasharray="5,2" d="M335.63,-505.22C341.06,-465.07 349.99,-361.45 311,-289 268.43,-209.91 175.25,-152.87 123.14,-125.76"/>
<polygon fill="black" stroke="black" points="124.83,-122.69 114.34,-121.27 121.66,-128.93 124.83,-122.69"/>
<text xml:space="preserve" text-anchor="middle" x="405.45" y="-305.55" font-family="Arial" font-size="11.00"> onProperty: legislationJurisdiction </text>
<text xml:space="preserve" text-anchor="middle" x="405.45" y="-292.05" font-family="Arial" font-size="11.00"> «max 1» &#160;</text>
</g>
<!-- Ne5c9b0b5464a48258917ad0db97fc7a6 -->
<g id="node10" class="node">
<title>Ne5c9b0b5464a48258917ad0db97fc7a6</title>
<polygon fill="lightyellow" stroke="none" points="183.25,-612.88 183.25,-631.12 242.75,-631.12 242.75,-612.88 183.25,-612.88"/>
<text xml:space="preserve" text-anchor="start" x="185.25" y="-617.73" font-family="Arial" font-size="12.00">«unionOf»</text>
<polygon fill="none" stroke="black" points="183.25,-612.88 183.25,-631.12 242.75,-631.12 242.75,-612.88 183.25,-612.88"/>
</g>
<!-- Bylaw&#45;&gt;Ne5c9b0b5464a48258917ad0db97fc7a6 -->
<g id="edge14" class="edge">
<title>Bylaw&#45;&gt;Ne5c9b0b5464a48258917ad0db97fc7a6</title>
<path fill="none" stroke="black" d="M316.54,-540.68C311.18,-546.35 305.31,-552.82 300.25,-559 290.92,-570.41 292.14,-576.36 281,-586 272.65,-593.22 262.56,-599.44 252.73,-604.56"/>
<polygon fill="black" stroke="black" points="251.48,-601.27 244.03,-608.81 254.55,-607.56 251.48,-601.27"/>
<text xml:space="preserve" text-anchor="middle" x="321.62" y="-575.55" font-family="Arial" font-size="11.00"> impacts </text>
<text xml:space="preserve" text-anchor="middle" x="321.62" y="-562.05" font-family="Arial" font-size="11.00"> «only» &#160;</text>
</g>
<!-- Nf9f68cd4a7ef4e6b85815225f7311f1c -->
<g id="node11" class="node">
<title>Nf9f68cd4a7ef4e6b85815225f7311f1c</title>
<text xml:space="preserve" text-anchor="middle" x="508" y="-617.73" font-family="Arial" font-size="12.00">Nf9f68cd4a7ef4e6b85815225f7311f1c</text>
</g>
<!-- Bylaw&#45;&gt;Nf9f68cd4a7ef4e6b85815225f7311f1c -->
<g id="edge15" class="edge">
<title>Bylaw&#45;&gt;Nf9f68cd4a7ef4e6b85815225f7311f1c</title>
<path fill="none" stroke="black" d="M359.98,-538.95C388.75,-554.9 434.64,-580.34 467.7,-598.66"/>
<polygon fill="black" stroke="black" points="465.75,-601.58 476.19,-603.37 469.14,-595.46 465.75,-601.58"/>
<text xml:space="preserve" text-anchor="middle" x="479.57" y="-575.55" font-family="Arial" font-size="11.00"> legislationType </text>
<text xml:space="preserve" text-anchor="middle" x="479.57" y="-562.05" font-family="Arial" font-size="11.00"> «only» &#160;</text>
</g>
<!-- activity__Activity -->
<g id="node4" class="node">
<title>activity__Activity</title>
<polygon fill="lightgray" stroke="none" points="36.5,-429.38 36.5,-445.62 119.5,-445.62 119.5,-429.38 36.5,-429.38"/>
<text xml:space="preserve" text-anchor="start" x="37.5" y="-433.23" font-family="Arial" font-size="12.00">activity::Activity</text>
<polygon fill="none" stroke="black" points="35.5,-428.38 35.5,-446.62 120.5,-446.62 120.5,-428.38 35.5,-428.38"/>
</g>
<!-- Invis&#45;&gt;activity__Activity -->
<!-- cdmOrg__Organization -->
<g id="node5" class="node">
<title>cdmOrg__Organization</title>
<polygon fill="lightgray" stroke="none" points="16.88,-343.88 16.88,-360.12 135.12,-360.12 135.12,-343.88 16.88,-343.88"/>
<text xml:space="preserve" text-anchor="start" x="17.88" y="-347.73" font-family="Arial" font-size="12.00">cdmOrg::Organization</text>
<polygon fill="none" stroke="black" points="15.88,-342.88 15.88,-361.12 136.12,-361.12 136.12,-342.88 15.88,-342.88"/>
</g>
<!-- activity__Activity&#45;&gt;cdmOrg__Organization -->
<!-- cdmPerson__Person -->
<g id="node6" class="node">
<title>cdmPerson__Person</title>
<polygon fill="lightgray" stroke="none" points="24.5,-244.88 24.5,-261.12 131.5,-261.12 131.5,-244.88 24.5,-244.88"/>
<text xml:space="preserve" text-anchor="start" x="25.5" y="-248.72" font-family="Arial" font-size="12.00">cdmPerson::Person</text>
<polygon fill="none" stroke="black" points="23.5,-243.88 23.5,-262.12 132.5,-262.12 132.5,-243.88 23.5,-243.88"/>
</g>
<!-- cdmOrg__Organization&#45;&gt;cdmPerson__Person -->
<!-- city__JurisdictionalArea -->
<g id="node7" class="node">
<title>city__JurisdictionalArea</title>
<polygon fill="lightgray" stroke="none" points="17,-171.88 17,-188.12 139,-188.12 139,-171.88 17,-171.88"/>
<text xml:space="preserve" text-anchor="start" x="18" y="-175.72" font-family="Arial" font-size="12.00">city::JurisdictionalArea</text>
<polygon fill="none" stroke="black" points="16,-170.88 16,-189.12 140,-189.12 140,-170.88 16,-170.88"/>
</g>
<!-- cdmPerson__Person&#45;&gt;city__JurisdictionalArea -->
<!-- city__JurisdictionalArea&#45;&gt;i72__City -->
<!-- landUse__LandArea -->
<g id="node9" class="node">
<title>landUse__LandArea</title>
<polygon fill="lightgray" stroke="none" points="33.25,-25.88 33.25,-42.12 138.75,-42.12 138.75,-25.88 33.25,-25.88"/>
<text xml:space="preserve" text-anchor="start" x="34.25" y="-29.73" font-family="Arial" font-size="12.00">landUse::LandArea</text>
<polygon fill="none" stroke="black" points="32.25,-24.88 32.25,-43.12 139.75,-43.12 139.75,-24.88 32.25,-24.88"/>
</g>
<!-- i72__City&#45;&gt;landUse__LandArea -->
<!-- Ne5c9b0b5464a48258917ad0db97fc7a6&#45;&gt;activity__Activity -->
<g id="edge9" class="edge">
<title>Ne5c9b0b5464a48258917ad0db97fc7a6&#45;&gt;activity__Activity</title>
<path fill="none" stroke="black" stroke-dasharray="1,5" d="M192.63,-604.05C176.86,-590.27 155.1,-569.77 139.25,-549 119.03,-522.51 101.24,-488.54 90.11,-465.3"/>
<polygon fill="black" stroke="black" points="93.4,-464.07 85.99,-456.51 87.07,-467.05 93.4,-464.07"/>
<text xml:space="preserve" text-anchor="middle" x="159.12" y="-519.3" font-family="Arial" font-size="11.00">member</text>
</g>
<!-- Ne5c9b0b5464a48258917ad0db97fc7a6&#45;&gt;cdmOrg__Organization -->
<g id="edge12" class="edge">
<title>Ne5c9b0b5464a48258917ad0db97fc7a6&#45;&gt;cdmOrg__Organization</title>
<path fill="none" stroke="black" stroke-dasharray="1,5" d="M183.51,-619.39C140.55,-615.28 61.95,-600.69 26,-549 -6.86,-501.75 8.15,-473.88 27,-419.5 32.19,-404.53 42.02,-390.1 51.53,-378.53"/>
<polygon fill="black" stroke="black" points="54.1,-380.9 58,-371.05 48.81,-376.32 54.1,-380.9"/>
<text xml:space="preserve" text-anchor="middle" x="29.12" y="-476.55" font-family="Arial" font-size="11.00">member</text>
</g>
<!-- Ne5c9b0b5464a48258917ad0db97fc7a6&#45;&gt;cdmPerson__Person -->
<g id="edge13" class="edge">
<title>Ne5c9b0b5464a48258917ad0db97fc7a6&#45;&gt;cdmPerson__Person</title>
<path fill="none" stroke="black" stroke-dasharray="1,5" d="M209.53,-604.38C197.47,-546.91 157.43,-358.77 145,-334 134.75,-313.56 118.32,-293.83 104.29,-279.07"/>
<polygon fill="black" stroke="black" points="106.94,-276.77 97.44,-272.08 101.93,-281.67 106.94,-276.77"/>
<text xml:space="preserve" text-anchor="middle" x="196.79" y="-433.8" font-family="Arial" font-size="11.00">member</text>
</g>
<!-- Ne5c9b0b5464a48258917ad0db97fc7a6&#45;&gt;city__JurisdictionalArea -->
<g id="edge10" class="edge">
<title>Ne5c9b0b5464a48258917ad0db97fc7a6&#45;&gt;city__JurisdictionalArea</title>
<path fill="none" stroke="black" stroke-dasharray="1,5" d="M215.89,-604.07C221.31,-569.15 231.31,-486.78 218,-419.5 200.78,-332.5 194.27,-306.64 142,-235 133.85,-223.83 122.92,-213.5 112.4,-204.94"/>
<polygon fill="black" stroke="black" points="114.57,-202.2 104.53,-198.81 110.27,-207.72 114.57,-202.2"/>
<text xml:space="preserve" text-anchor="middle" x="234.1" y="-391.05" font-family="Arial" font-size="11.00">member</text>
</g>
<!-- Ne5c9b0b5464a48258917ad0db97fc7a6&#45;&gt;landUse__LandArea -->
<g id="edge11" class="edge">
<title>Ne5c9b0b5464a48258917ad0db97fc7a6&#45;&gt;landUse__LandArea</title>
<path fill="none" stroke="black" stroke-dasharray="1,5" d="M230.41,-604.17C247.17,-586.08 270,-555.64 270,-524 270,-524 270,-524 270,-106 270,-79.71 203.78,-59.41 150.79,-47.38"/>
<polygon fill="black" stroke="black" points="151.71,-43.99 141.19,-45.26 150.21,-50.83 151.71,-43.99"/>
<text xml:space="preserve" text-anchor="middle" x="289.88" y="-298.8" font-family="Arial" font-size="11.00">member</text>
</g>
</g>
</svg>
