<?xml version="1.0" encoding="UTF-8" standalone="no"?>
<!DOCTYPE svg PUBLIC "-//W3C//DTD SVG 1.1//EN"
 "http://www.w3.org/Graphics/SVG/1.1/DTD/svg11.dtd">
<!-- Generated by graphviz version 14.0.2 (20251019.1705)
 -->
<!-- Pages: 1 -->
<svg width="660pt" height="232pt"
 viewBox="0.00 0.00 660.00 232.00" xmlns="http://www.w3.org/2000/svg" xmlns:xlink="http://www.w3.org/1999/xlink">
<g id="graph0" class="graph" transform="scale(1 1) rotate(0) translate(4 228)">
<polygon fill="white" stroke="none" points="-4,4 -4,-228 655.88,-228 655.88,4 -4,4"/>
<g id="clust2" class="cluster">
<title>cluster_associated</title>
</g>
<!-- Clause -->
<g id="node1" class="node">
<title>Clause</title>
<g id="a_node1"><a xlink:href="../_counters/Bylaw__Clause.md" xlink:title="&lt;TABLE&gt;">
<polygon fill="lightgray" stroke="none" points="303.75,-98.88 303.75,-115.12 344,-115.12 344,-98.88 303.75,-98.88"/>
<text xml:space="preserve" text-anchor="start" x="304.75" y="-102.72" font-family="Arial" font-size="12.00">Clause</text>
<polygon fill="none" stroke="black" points="302.75,-97.88 302.75,-116.12 345,-116.12 345,-97.88 302.75,-97.88"/>
</a>
</g>
</g>
<!-- Clause&#45;&gt;Clause -->
<g id="edge5" class="edge">
<title>Clause&#45;&gt;Clause</title>
<path fill="none" stroke="black" d="M350.67,-113.83C360.66,-114.05 368.88,-111.78 368.88,-107 368.88,-104.24 366.13,-102.31 361.88,-101.22"/>
<polygon fill="black" stroke="black" points="362.46,-97.76 352.18,-100.31 361.81,-104.73 362.46,-97.76"/>
<text xml:space="preserve" text-anchor="middle" x="397.38" y="-110.05" font-family="Arial" font-size="11.00"> hasClause </text>
<text xml:space="preserve" text-anchor="middle" x="397.38" y="-96.55" font-family="Arial" font-size="11.00"> «only» &#160;</text>
</g>
<!-- BylawOntologyThing -->
<g id="node2" class="node">
<title>BylawOntologyThing</title>
<g id="a_node2"><a xlink:href="../_counters/Bylaw__BylawOntologyThing.md" xlink:title="&lt;TABLE&gt;">
<polygon fill="lightgray" stroke="none" points="1,-197.88 1,-214.12 114.75,-214.12 114.75,-197.88 1,-197.88"/>
<text xml:space="preserve" text-anchor="start" x="2" y="-201.72" font-family="Arial" font-size="12.00">BylawOntologyThing</text>
<polygon fill="none" stroke="black" points="0,-196.88 0,-215.12 115.75,-215.12 115.75,-196.88 0,-196.88"/>
</a>
</g>
</g>
<!-- Clause&#45;&gt;BylawOntologyThing -->
<g id="edge1" class="edge">
<title>Clause&#45;&gt;BylawOntologyThing</title>
<path fill="none" stroke="black" d="M297.1,-117.76C254.65,-133.24 170.98,-163.75 114.73,-184.27"/>
<polygon fill="none" stroke="black" points="113.83,-180.87 105.63,-187.59 116.22,-187.45 113.83,-180.87"/>
</g>
<!-- Invis -->
<!-- Clause&#45;&gt;Invis -->
<!-- Nebac0c39c638447dbffd45550c871bdd -->
<g id="node5" class="node">
<title>Nebac0c39c638447dbffd45550c871bdd</title>
<text xml:space="preserve" text-anchor="middle" x="240.88" y="-201.72" font-family="Arial" font-size="12.00">Nebac0c39c638447dbffd45550c871bdd</text>
</g>
<!-- Clause&#45;&gt;Nebac0c39c638447dbffd45550c871bdd -->
<g id="edge4" class="edge">
<title>Clause&#45;&gt;Nebac0c39c638447dbffd45550c871bdd</title>
<path fill="none" stroke="black" d="M297.19,-115.05C282.27,-120.34 264.58,-129.12 253.88,-143 246.5,-152.57 243.06,-165.34 241.53,-176.8"/>
<polygon fill="black" stroke="black" points="238.06,-176.32 240.69,-186.58 245.04,-176.92 238.06,-176.32"/>
<text xml:space="preserve" text-anchor="middle" x="283.88" y="-159.55" font-family="Arial" font-size="11.00"> clauseType </text>
<text xml:space="preserve" text-anchor="middle" x="283.88" y="-146.05" font-family="Arial" font-size="11.00"> «some» &#160;</text>
</g>
<!-- Ndb6c9ffa458d48f7bf3a3dac54371a42 -->
<g id="node6" class="node">
<title>Ndb6c9ffa458d48f7bf3a3dac54371a42</title>
<polygon fill="lightyellow" stroke="none" points="366.12,-196.88 366.12,-215.12 425.62,-215.12 425.62,-196.88 366.12,-196.88"/>
<text xml:space="preserve" text-anchor="start" x="368.12" y="-201.72" font-family="Arial" font-size="12.00">«unionOf»</text>
<polygon fill="none" stroke="black" points="366.12,-196.88 366.12,-215.12 425.62,-215.12 425.62,-196.88 366.12,-196.88"/>
</g>
<!-- Clause&#45;&gt;Ndb6c9ffa458d48f7bf3a3dac54371a42 -->
<g id="edge8" class="edge">
<title>Clause&#45;&gt;Ndb6c9ffa458d48f7bf3a3dac54371a42</title>
<path fill="none" stroke="black" d="M346.69,-124.7C353.08,-130.07 359.68,-136.37 364.88,-143 373.08,-153.49 379.98,-166.49 385.18,-177.88"/>
<polygon fill="black" stroke="black" points="381.84,-178.98 389.02,-186.77 388.27,-176.2 381.84,-178.98"/>
<text xml:space="preserve" text-anchor="middle" x="441.92" y="-159.55" font-family="Arial" font-size="11.00"> partwhole::properPartOf </text>
<text xml:space="preserve" text-anchor="middle" x="441.92" y="-146.05" font-family="Arial" font-size="11.00"> «exactly 1» &#160;</text>
</g>
<!-- Law -->
<g id="node4" class="node">
<title>Law</title>
<g id="a_node4"><a xlink:href="../_counters/Bylaw__Law.md" xlink:title="&lt;TABLE&gt;">
<polygon fill="lightgray" stroke="none" points="596.62,-25.88 596.62,-42.12 621.12,-42.12 621.12,-25.88 596.62,-25.88"/>
<text xml:space="preserve" text-anchor="start" x="597.62" y="-29.73" font-family="Arial" font-size="12.00">Law</text>
<polygon fill="none" stroke="black" points="595.62,-24.88 595.62,-43.12 622.12,-43.12 622.12,-24.88 595.62,-24.88"/>
</a>
</g>
</g>
<!-- Invis&#45;&gt;Law -->
<!-- Ndb6c9ffa458d48f7bf3a3dac54371a42&#45;&gt;Clause -->
<g id="edge6" class="edge">
<title>Ndb6c9ffa458d48f7bf3a3dac54371a42&#45;&gt;Clause</title>
<path fill="none" stroke="black" stroke-dasharray="1,5" d="M366.25,-192.09C348.02,-183.85 327.66,-173.99 325.12,-170 318.83,-160.08 317.67,-147.36 318.42,-136.02"/>
<polygon fill="black" stroke="black" points="321.86,-136.73 319.57,-126.39 314.91,-135.9 321.86,-136.73"/>
<text xml:space="preserve" text-anchor="middle" x="345" y="-152.8" font-family="Arial" font-size="11.00">member</text>
</g>
<!-- Ndb6c9ffa458d48f7bf3a3dac54371a42&#45;&gt;Law -->
<g id="edge7" class="edge">
<title>Ndb6c9ffa458d48f7bf3a3dac54371a42&#45;&gt;Law</title>
<path fill="none" stroke="black" stroke-dasharray="1,5" d="M425.15,-203.07C450.03,-199.91 485.07,-191.63 506.88,-170 533.74,-143.35 510.76,-119.52 533.12,-89 543.44,-74.92 558.55,-63.11 572.56,-54.15"/>
<polygon fill="black" stroke="black" points="573.98,-57.38 580.72,-49.2 570.35,-51.4 573.98,-57.38"/>
<text xml:space="preserve" text-anchor="middle" x="553" y="-103.3" font-family="Arial" font-size="11.00">member</text>
</g>
</g>
</svg>
